PathFileType	4	(X/Y/Z)	18_1_8_p0_0-365_filt_butterworth.trc
DataRate	CameraRate	NumFrames	NumMarkers	Units	OrigDataRate	OrigDataStartFrame	OrigNumFrames
57.0	57.0	6	27	m	57.0	136	365
Frame#	Time	RHip			RKnee			RAnkle			RBigToe			RSmallToe			RHeel			LHip			LKnee			LAnkle			LBigToe			LSmallToe			LHeel			Neck			Head			Nose			RShoulder			RElbow			RWrist			RThumb			RIndex			RPinky			LShoulder			LElbow			LWrist			LThumb			LIndex			LPinky			
		X1	Y1	Z1	X2	Y2	Z2	X3	Y3	Z3	X4	Y4	Z4	X5	Y5	Z5	X6	Y6	Z6	X7	Y7	Z7	X8	Y8	Z8	X9	Y9	Z9	X10	Y10	Z10	X11	Y11	Z11	X12	Y12	Z12	X13	Y13	Z13	X14	Y14	Z14	X15	Y15	Z15	X16	Y16	Z16	X17	Y17	Z17	X18	Y18	Z18	X19	Y19	Z19	X20	Y20	Z20	X21	Y21	Z21	X22	Y22	Z22	X23	Y23	Z23	X24	Y24	Z24	X25	Y25	Z25	X26	Y26	Z26	X27	Y27	Z27	
136	2.3859649122807016	0.2497438497620177	0.35173342329544444	1.2280505975750138	0.22457637097046557	0.43029807936065334	1.630950315258286	0.22604137471097907	0.497790747961816	1.9972026544237482	0.22394278763468184	0.3708868895381858	2.0353427231420964	0.28896594995642405	0.39774810684699297	2.0350797278084185	0.21388075034992343	0.6026187512240645	2.0559778422674855	0.037435725638643856	0.393083367908586	1.2345092399111963	0.035358217693765924	0.48115396690585466	1.6581615434778252	0.03421224176874084	0.5551928825718847	2.0244835404701558	0.06665548441276326	0.35912978181472066	2.0275644563780295	0.014121425625539957	0.4096665901768	2.032221735917359	0.03672292504774494	0.5961541250807	2.056575707006824	0.17928454414124315	0.31369069392811455	0.708142455141392	0.19311446741125	0.25969281004278144	0.4671364702619898	0.17286345176581216	0.16069756677542876	0.5924087039040588	0.3117799251196522	0.3017926769963706	0.8008718582404257	0.39955423704669313	0.3036329459622074	1.0500357869264383	0.4409021771138166	0.17211168051482156	1.2615484294066783	0.4206894658671637	0.14953539705857793	1.3803932483947043	0.4374755206740105	0.1361273926110137	1.3977109990424612	0.4618604055140137	0.1866962579837635	1.3901454170069054	0.010645660530483738	0.32058997846422943	0.7950402026481386	-0.06578081945253969	0.38897966606665924	1.0405002164668424	-0.1107866649394602	0.3659913252864463	1.261603943760734	-0.08570567540570825	0.40350041122143177	1.3713137682652912	-0.11970853441838626	0.3590418956073709	1.3841762632532293	-0.15660060257288055	0.43284276402862887	1.3789567860785996
137	2.4035087719298245	0.2512544117117069	0.3464421622133428	1.2264685323538547	0.22465310326111493	0.430689709232797	1.6310467583505346	0.22612435744816353	0.49819864800350666	1.9974333388346786	0.22260460179969113	0.37533900564406064	2.038603433122758	0.2882290794552933	0.39820645422176815	2.036683002028223	0.21286283219627777	0.6035271013690567	2.058582280674277	0.0373319458410698	0.39342383162290495	1.2342388403757707	0.03542939247217534	0.481567440964832	1.6586448214029823	0.03536565798314625	0.5533101530158469	2.0234981555401133	0.06506583453148024	0.3629197832507125	2.0294810839594652	0.013708306523531163	0.41113706779047665	2.0329116668817013	0.03558994186484658	0.5953361948635404	2.0562904790441783	0.17928203438646767	0.3137130077398623	0.7081383491907588	0.19311415144643296	0.2596787585925865	0.4671195204760766	0.17289685063165278	0.16126327966899323	0.5942180709998331	0.31177598132066	0.3017573914559245	0.80080198769042	0.4016662520983822	0.3027586136581681	1.0497886516833925	0.44136761946553343	0.17200291650895094	1.2610035111461233	0.4207194598605408	0.1496346140261409	1.3803355313213652	0.43751650901661343	0.13646249772641056	1.3977918999938639	0.46142166813478847	0.18747873306640217	1.389484570478467	0.01068974578957361	0.32060401738727407	0.7950058918882339	-0.06547365723621769	0.3902319428348574	1.041808432538678	-0.11070380078726966	0.3638970277850425	1.2630373376962296	-0.0854975624581159	0.39370179688920365	1.3704329819773238	-0.11753949047118828	0.3557499176398423	1.390054161867733	-0.1516129623860324	0.4174692307403354	1.3789954338370771
138	2.421052631578948	0.25247936194554316	0.3423389396128989	1.224403369905999	0.224667722473815	0.43091188572354	1.631065843918554	0.22616551623163172	0.49842524814795364	1.9975852316557259	0.22092257371430588	0.3809693835528298	2.0419008716255047	0.2858784639443298	0.3966681694353675	2.037859939900667	0.2116340026226659	0.6043934990955175	2.0630847065261424	0.03702668693526763	0.3925318290986256	1.2344077474785053	0.035590169257349695	0.48248279813651007	1.6600416392784814	0.034510366273307586	0.5529829910762127	2.0232995480194886	0.06414846494167707	0.3686115531901796	2.032372019093225	0.012247636883225683	0.41542071526321545	2.0349743861153966	0.03522767599911212	0.594979452959972	2.0562101610213497	0.17928337565705638	0.31373794690727663	0.7081125945568295	0.19312685953548228	0.25982306838115965	0.4673978931201611	0.1729720401342452	0.16209432388453737	0.5966933733161083	0.31176730012606285	0.30170159708414385	0.8007060201310415	0.4043181256836711	0.30208395362081264	1.049627799508519	0.4414689732275069	0.1716752011647982	1.2617463465593246	0.42074253676387674	0.14961588670141115	1.3802590922468072	0.43751460457942226	0.13663830516778122	1.397898973325572	0.46001348744991466	0.18699675238635577	1.3892962147386365	0.010735181638098277	0.32062692018247	0.7949671123599014	-0.06433706645007659	0.3910175086636036	1.0424501785683236	-0.10909246816271911	0.3615269817292182	1.2631897022156544	-0.08562336527907888	0.38424481844880776	1.370313108352305	-0.11510884063122093	0.35599912125545896	1.3952793752496981	-0.14530832168870622	0.39742472446323784	1.378238563197135
139	2.43859649122807	0.25307735352467464	0.34069126845134967	1.22234457009081	0.2246326861994627	0.43097107541238705	1.6310653231322623	0.22617143175422677	0.4984753829492037	1.997652251155944	0.21969499574698514	0.3849950456552119	2.043981287604927	0.28265997621236516	0.3924990126149638	2.0374977873639	0.2111403379077204	0.6048307407837452	2.067346346007149	0.036772843262002544	0.38858609469179306	1.234678168853337	0.03578017773105193	0.48360403270831354	1.66197954191313	0.032014310922528766	0.553232167235348	2.023691511928194	0.06445804090587406	0.37338135267283173	2.0347278720261137	0.009803714892193217	0.42115618932255944	2.037760023289004	0.03527351869242613	0.5949037013980331	2.056230417167545	0.17929114273411229	0.313756565767117	0.7080838136743166	0.1931702457962815	0.2602634795701376	0.46817373699831344	0.1729552714417547	0.1627188056892968	0.5985274470032045	0.3117611211706122	0.3017042273268685	0.8007121737248162	0.40589318035669775	0.30297471976131085	1.0497688471620163	0.44094810752681013	0.17151420392138989	1.2632266081680648	0.42075020490112847	0.14942553342919462	1.3805281780976915	0.43746312758941197	0.13648854103220395	1.3979241682370793	0.45901848907434695	0.18646363385753573	1.3894210873636825	0.01070584742150188	0.32064779521697695	0.7949437023128207	-0.06227628991036818	0.39040898011386493	1.042447283461793	-0.10542601055380732	0.35682582466668467	1.2631494481251195	-0.08612833649184005	0.37699022546488326	1.3721608373988474	-0.11328370000400784	0.3572806067202963	1.3985225033617874	-0.13818644922707518	0.3780152825778538	1.377496463725334
140	2.456140350877193	0.25323506940339174	0.3407003654938077	1.2209507281776917	0.22459551971424052	0.43097152578608156	1.6311073776095912	0.2261740006459008	0.4984806158293842	1.997699098534767	0.21927020466476546	0.386331277891435	2.0444228539850546	0.2804364634750953	0.38874572286153397	2.036346202164061	0.2117308026139761	0.6046055632910385	2.0690937226864183	0.03725103510058815	0.3810442949988341	1.2343856450113593	0.03588218668713264	0.4843111049525001	1.6635063377126948	0.029786151198772468	0.5532890603648926	2.024568411149996	0.06543951512070552	0.37561550857464426	2.035651114535221	0.0072081965931943	0.4244976991209533	2.0397469391487335	0.03532834020137006	0.5947982054879961	2.0562456031983665	0.1793026880721768	0.31376533745739255	0.708070646633319	0.19323778884689247	0.2608814420684572	0.46921635303764203	0.172499922572726	0.16275483036025368	0.598904150245701	0.3117916797100543	0.30194091144027146	0.8011138713236005	0.4056488291277733	0.3064253058732693	1.0503284553212868	0.4397376319031053	0.1712537462571953	1.2643268376828654	0.4207145527939185	0.1491108848267113	1.381740341638653	0.43738538234294494	0.13601573859096128	1.3978455535760588	0.4583805343674535	0.1862596244420925	1.390164046036899	0.0105732045679443	0.32065997516953576	0.7949418380327102	-0.05968450286794175	0.3874448896813773	1.0421258129451345	-0.10121196594126489	0.3508159776409131	1.2646116780605627	-0.0861442353952531	0.37182741644402545	1.3765787262811355	-0.11196339154941941	0.3573721370635987	1.4009620647805914	-0.13151815807301886	0.3641769057526096	1.3784743632776668
141	2.473684210526316	0.2531761257885453	0.3412752953108421	1.220747232204952	0.2245726881532707	0.4310223550744417	1.6310927807824736	0.22618290512364794	0.49851369373988635	1.9977526719456948	0.21941089189662236	0.3860311945546147	2.0438209898364197	0.2802543851524754	0.3904825110604286	2.0366344939620347	0.21261782243310898	0.6037920994391027	2.0684150347456036	0.03892645734098912	0.3717322008928714	1.232958256505904	0.035891389318791905	0.4843301664700192	1.6640752477762355	0.028937636319544106	0.5532951792847917	2.0257122859102035	0.06611150349360746	0.37611333394756163	2.0357762246509044	0.005520641190565887	0.42232749714719947	2.0404060485359894	0.03527155829783017	0.5945113346882301	2.0562223497658403	0.17931407243018516	0.31376260464193295	0.7080720353548705	0.1932967149765494	0.26135623974838945	0.4699885186902567	0.1713358557663095	0.162165839436549	0.5979383546797696	0.3118980732492975	0.30253262095471567	0.8021361642627249	0.4043936484577935	0.31125375742626477	1.0511698400749843	0.4380859504127458	0.17077059023306054	1.2646207564930725	0.42062211648116304	0.14883991362727877	1.383995176797574	0.43734050676422814	0.13565192831934877	1.3978115050214528	0.4566470568309055	0.1861172955843477	1.3916268139110606	0.010555101685767305	0.32069152277481494	0.7949461880096385	-0.05734044107010727	0.3828606143879979	1.04210282640978	-0.09865031121496913	0.3466912314008926	1.2682605032298735	-0.08382983204748248	0.3645914151525116	1.381525445880099	-0.10969311794281149	0.35470722300054613	1.404102038523198	-0.12664190961801838	0.3564681199931289	1.3825396115418846
